<?xml version="1.0" encoding="utf-8"?>
<!-- Generator: Adobe Illustrator 21.1.0, SVG Export Plug-In . SVG Version: 6.00 Build 0)  -->
<svg version="1.1" id="Layer_1" xmlns="http://www.w3.org/2000/svg" xmlns:xlink="http://www.w3.org/1999/xlink" x="0px" y="0px"
	 viewBox="0 0 74.1 82.7" style="enable-background:new 0 0 74.1 82.7;" xml:space="preserve">
<style type="text/css">
	.st0{fill:#4F4E4E;}
	.st1{fill:none;stroke:#323232;stroke-width:0.5;stroke-miterlimit:10;}
	.st2{fill:#F8EEDA;}
	.st3{fill:#F8EEDA;stroke:#323232;stroke-width:0.5;stroke-miterlimit:10;}
	.st4{fill:#262626;}
	.st5{fill:#415359;}
	.st6{fill:#F1F2F2;}
	.st7{fill:#323232;}
	.st8{fill:#4B4B4B;}
	.st9{fill:#3C4693;}
	.st10{fill:#373535;}
	.st11{fill:#F89734;}
	.st12{fill:#C0343E;}
	.st13{fill:#EF4C44;}
	.st14{fill:#4B3F3D;stroke:#000000;stroke-width:0.25;stroke-miterlimit:10;}
	.st15{fill:#645854;stroke:#000000;stroke-width:0.25;stroke-miterlimit:10;}
	.st16{fill:#F1F8F9;stroke:#000000;stroke-width:0.25;stroke-miterlimit:10;}
	.st17{fill:none;stroke:#000000;stroke-width:0.25;stroke-miterlimit:10;}
</style>
<g>
	<path class="st14" d="M15.1,37.7c0,0,12.7,7.2,14.1,7.5c1.4,0.3,7.5,23.2,7.5,23.2L33,44.4l-15.1-8.3C17.9,36.1,14,35,15.1,37.7z"
		/>
	<path class="st14" d="M29.3,40.7c0,0,12.7,7.2,14.1,7.5c1.4,0.3,7.5,23.2,7.5,23.2l-3.7-23.9l-15.1-8.3
		C32.1,39.2,28.2,38.1,29.3,40.7z"/>
	<path class="st14" d="M38.3,42.3c0,0,12.7,7.2,14.1,7.5c1.4,0.3,7.5,23.2,7.5,23.2L56.1,49l-15.1-8.3
		C41.1,40.7,37.2,39.7,38.3,42.3z"/>
	<path class="st14" d="M52.5,39.3c0,0,12.7,7.2,14.1,7.5S74.1,70,74.1,70L70.4,46l-15.1-8.3C55.3,37.7,51.4,36.6,52.5,39.3z"/>
	<path class="st15" d="M61.6,46.1C61.6,46.1,61.6,46.1,61.6,46.1c-0.6,0.7-1.2,1.3-1.9,1.8c0,0,0,0-0.1,0.1
		c-0.1,0.1-0.3,0.2-0.4,0.3C45,59.4,35.2,50,35.2,50c-3.1,2.2-7.3,3.5-12.1,3.5c-8.8,0-16-4.6-16.9-10.6c-0.9-1.4-1.4-2.9-1.4-4.5
		c0-6.1,7.2-11.1,16.1-11.1c6.1,0,11.5,2.4,14.2,5.8l0,0h0L46,38.7c0.6-3.9,3.6-6.9,7.3-7.5l-3.9-17c-0.7-0.4-1.3-0.7-2-1.2
		c-5.9-3.8-8.8-9-6.6-11.6c2.2-2.6,8.7-1.6,14.6,2.2c5.9,3.8,8.8,9,6.6,11.6c-0.3,0.4-0.8,0.7-1.4,1C63.6,22.1,69.6,36.8,61.6,46.1z
		"/>
	<path class="st14" d="M22.7,40.7c0,0-12.7,7.2-14.1,7.5S1.1,71.4,1.1,71.4l3.7-23.9l15.1-8.3C19.9,39.2,23.8,38.1,22.7,40.7z"/>
	<path class="st14" d="M32.1,45.4c0,0-12.7,7.2-14.1,7.5c-1.4,0.3-7.5,23.2-7.5,23.2l3.7-23.9l15.1-8.3
		C29.3,43.8,34.3,42.3,32.1,45.4z"/>
	<path class="st14" d="M43.6,39.6l-16,10.5l-3.9,30.2c0,0,6.5-28.8,8-29.2s15-9.5,15-9.5S48.4,39.2,43.6,39.6z"/>
	<path class="st14" d="M58.9,35.4l-13,12.2l-3.2,35.1c0,0,5.3-33.5,6.5-34s12.1-11,12.1-11S63.4,34.5,58.9,35.4z"/>
	<ellipse transform="matrix(0.4175 -0.9087 0.9087 0.4175 24.0939 49.5311)" class="st16" cx="50.7" cy="6" rx="1.9" ry="3"/>
	<path class="st17" d="M46.9,5.7c0,0,1.9,5.3,7,2.3"/>
	<path class="st17" d="M46.2,5.2c0,0,0.5,6.8,8,4"/>
	<circle cx="51.2" cy="6" r="0.8"/>
</g>
</svg>
