<?xml version="1.0" encoding="utf-8"?>
<!-- Generator: Adobe Illustrator 21.1.0, SVG Export Plug-In . SVG Version: 6.00 Build 0)  -->
<svg version="1.1" id="Layer_1" xmlns="http://www.w3.org/2000/svg" xmlns:xlink="http://www.w3.org/1999/xlink" x="0px" y="0px"
	 viewBox="0 0 86.9 96.9" style="enable-background:new 0 0 86.9 96.9;" xml:space="preserve">
<style type="text/css">
	.st0{fill:#4F4E4E;}
	.st1{fill:none;stroke:#323232;stroke-width:0.5;stroke-miterlimit:10;}
	.st2{fill:#F8EEDA;}
	.st3{fill:#F8EEDA;stroke:#323232;stroke-width:0.5;stroke-miterlimit:10;}
	.st4{fill:#262626;}
	.st5{fill:#415359;}
	.st6{fill:#F1F2F2;}
	.st7{fill:#323232;}
	.st8{fill:#4B4B4B;}
	.st9{fill:#3C4693;}
	.st10{fill:#373535;}
	.st11{fill:#F89734;}
	.st12{fill:#C0343E;}
	.st13{fill:#EF4C44;}
	.st14{fill:#4B3F3D;stroke:#000000;stroke-width:0.25;stroke-miterlimit:10;}
	.st15{fill:#645854;stroke:#000000;stroke-width:0.25;stroke-miterlimit:10;}
	.st16{fill:#F1F8F9;stroke:#000000;stroke-width:0.25;stroke-miterlimit:10;}
	.st17{fill:none;stroke:#000000;stroke-width:0.25;stroke-miterlimit:10;}
</style>
<path class="st0" d="M11.9,56.4c0,0,3.3-3.1,5.4-2.5c2.1,0.5,23.8,2.6,23.8,2.6s3.2,3.1,3.6,5.9c0.4,2.8,3,13.2,3,13.2l0.5,5.9
	L8.6,85.9c0,0,0.3-15.1,2.5-17.1l-2.4-1.9C8.7,66.8,8,58.2,11.9,56.4z"/>
<path class="st1" d="M40.6,56.9c5.9,1.2,7.5,24.4,7.5,24.4L8.7,85.6C8,77.4,10.9,69,10.9,69"/>
<path class="st2" d="M26.1,66c0,0,2.9-4.5,5.6-3.3l4,4c0,0,4,0.2,4.2,2.5c0,0,0.4,3.4-3.4,3.6l-1.9,2.9l-0.9,0.4c0,0-0.1,4.3-6.8,2
	c0,0-4.5-3.3-3.8-4.7C23.2,73.4,26.2,68.3,26.1,66z"/>
<path class="st1" d="M26.1,66c0,0,3.3-5.3,6.2-3.2c2.8,2.2,2.2,3.5,2.2,3.5s6.6,0.5,5.6,3.8c-1,3.3-3.9,2.9-3.9,2.9s-1,2.4-2.2,2.5
	c0,0,0.2,3.6-5,2.8s-7.1-7.2-7.1-7.2l3.3-6.1L26.1,66z"/>
<path class="st2" d="M18,62c0,0,7.1,1.2,8.1,2.8c0.9,1.6-2.5,8.3-2.5,8.3l-2.7,2L9.2,68.3c0,0-1.6-8.1,1.2-9.9l4.6,3.2L18,62z"/>
<path class="st3" d="M53.9,73.6l-7.3-4.1l-6.4-14.1c0,0,12.1,4.8,17.7,8.9"/>
<polygon class="st4" points="40.2,68.3 70.8,68.2 70.5,60.6 39.1,60.8 32.2,63.1 34.7,65.5 35,66.2 "/>
<polygon class="st2" points="53.9,68 58.2,68 61.7,68.3 61.8,75.1 53.9,75.1 "/>
<polygon class="st5" points="11.1,85.4 46,81.5 48.1,91.1 38.7,94 27.3,94.5 9.8,95.2 9.3,94.2 "/>
<path class="st0" d="M30.4,94c0,0,15.2-4.8,18.1-2.4l2.3,4.8l-19.9-0.4L30.4,94z"/>
<path class="st0" d="M8.7,96.9h22.2l-0.2-1.8l-1-2.2c0,0-8-1.5-12.3-0.5L14.7,94l-4.2,0.5l-1.3-0.2L8.7,96.9z"/>
<path class="st1" d="M17.2,53.4c0,0-11.3,1.8-7.8,14.7l12,7c0,0,5.4-4.9,4.4-10.8c0,0-9-4.5-12.6-2"/>
<path class="st3" d="M3.7,43.5c0,0,0.8,13,8.2,7.8v-1.4c0,0-1.1,3.6,2.5,4.9s20.1,9.5,31.4,0c0,0,3.1-4.3,2.5-7.8l3.1-4.9V30
	l-32.1-3.5L8.7,30.9L3.7,43.5z"/>
<ellipse class="st6" cx="25.2" cy="36.7" rx="7.1" ry="6.2"/>
<ellipse class="st6" cx="43.3" cy="35.8" rx="7.1" ry="6.2"/>
<path class="st7" d="M56.6,34.4c0,0-9.8-4.8-38.8-0.7l-0.3,10.5L0.3,46.9c0,0-1.3-9,1.2-15c1.2-3,0.6-8.1,1.1-11.3
	c0.1-0.4,0.1-0.8,0.2-1.2c0.7-4.3,1.6-8.8,4.6-12.1c4.7-5,14-7,20.7-7.3c6.7-0.3,14.6,0.9,19.3,6.1c0.7,0.8,1.3,1.7,1.8,2.7
	c1.3,2.4,2.4,5,3.2,7.7c0.1,0.3,0.2,0.6,0.3,0.9c0.7,2.7,0.5,6,1.3,8.5L56.6,34.4z"/>
<path class="st4" d="M4.3,33.5c3.3-1.8,8.7-3.4,10.5,1.2c0.7,1.7,1,4.1,0.1,5.8c-1.5,2.9-6.2,2.8-9,3.1c-0.7,0.1-1.5,0.1-2.2-0.1
	C0.5,42.5,1.9,34.8,4.3,33.5z"/>
<path class="st8" d="M13.2,36.5v2.2h-1.3c-0.4,1.3-1.6,2.2-3,2.2c-1.7,0-3.2-1.4-3.2-3.2s1.4-3.2,3.2-3.2c1.3,0,2.5,0.8,2.9,2H13.2z
	"/>
<ellipse class="st9" cx="26" cy="37.9" rx="3" ry="2.5"/>
<ellipse class="st9" cx="46.5" cy="37.4" rx="3" ry="2.5"/>
<ellipse transform="matrix(0.9565 -0.2919 0.2919 0.9565 -9.8535 9.4331)" class="st10" cx="26.7" cy="37.7" rx="0.7" ry="0.7"/>
<circle class="st10" cx="48.1" cy="37.4" r="0.7"/>
<circle class="st6" cx="26.1" cy="37.1" r="0.3"/>
<circle class="st6" cx="47.4" cy="36.7" r="0.3"/>
<g>
	<path class="st7" d="M6.9,47.9c0.1,0.6,0.2,1.2,0.5,1.7c0.3,0.5,0.7,0.9,1.2,1c0.5,0.1,1.1,0,1.6-0.2l0.8-0.3
		c0.3-0.1,0.5-0.2,0.8-0.3l0,0c-0.2,0.2-0.5,0.4-0.7,0.6c-0.2,0.2-0.5,0.3-0.8,0.4c-0.6,0.2-1.3,0.3-1.9,0.1
		c-0.6-0.2-1.1-0.8-1.3-1.3C7,49.1,6.9,48.5,6.9,47.9L6.9,47.9z"/>
</g>
<path class="st1" d="M9.6,94.2c0,0,2.9,1.2,6.6-1.1s14.1,0,14.1,0l0.7,2.8"/>
<path class="st1" d="M30.9,94c0,0,14-4.3,17.2-2.8"/>
<line class="st1" x1="15.5" y1="61.6" x2="10.2" y2="58.1"/>
<ellipse transform="matrix(0.5 -0.866 0.866 0.5 -45.1471 62.6938)" class="st7" cx="31.7" cy="70.4" rx="0.5" ry="1.7"/>
<ellipse transform="matrix(0.5 -0.866 0.866 0.5 -49.7366 62.1681)" class="st7" cx="29" cy="74.2" rx="0.5" ry="1.7"/>
<path class="st1" d="M11.1,85.4L8.7,96.9h22.2v-1.1l19.9,0.4c0,0-1.7-4.7-2.7-5.1L46,81.5L11.1,85.4z"/>
<line class="st1" x1="30.4" y1="94" x2="30.4" y2="84.6"/>
<polyline class="st1" points="39.5,68 53.9,68 53.9,75.1 58.3,75.1 58.1,68 70.5,68 70.5,60.9 39.5,60.9 32.3,62.9 "/>
<polyline class="st1" points="58.2,70.3 53.9,70.3 53.9,68 58.2,68 61.7,68.3 61.8,75.1 58.2,75.1 53.9,75.1 53.9,72.8 58.2,72.8 
	"/>
<polyline class="st1" points="58.2,70.5 53.9,70.5 53.9,72.8 58.2,72.8 "/>
<g>
	<path class="st7" d="M23.1,49.4c1.5,0.7,3.1,1.3,4.7,1.8c1.6,0.5,3.2,0.9,4.9,1.2c1.6,0.2,3.3,0.3,5,0.2c1.6-0.1,3.3-0.4,4.8-1l0,0
		c-1.5,0.8-3.1,1.3-4.8,1.5c-1.7,0.1-3.4,0-5.1-0.3c-1.7-0.3-3.3-0.8-4.9-1.3C26.1,50.9,24.5,50.2,23.1,49.4L23.1,49.4z"/>
</g>
<g>
	<path class="st7" d="M35.4,42.1c1.1,1,2.1,2,2.9,3.2c0.4,0.6,0.8,1.2,1,2c0.1,0.4,0.1,0.8-0.1,1.1c-0.2,0.4-0.5,0.6-0.8,0.8
		c-0.7,0.3-1.4,0.4-2.2,0.4c-0.7,0-1.5,0-2.2-0.1c-0.7-0.1-1.5-0.4-2-1c-0.5-0.7-0.3-1.6,0.1-2.3l0.4,0.3c-0.3,0.5-0.5,1.3-0.1,1.8
		c0.4,0.5,1,0.8,1.7,0.9c0.7,0.1,1.4,0.2,2.1,0.2c0.7,0,1.4-0.1,2.1-0.3c0.3-0.1,0.6-0.4,0.7-0.7c0.1-0.3,0.1-0.7,0.1-1
		c-0.1-0.7-0.5-1.3-0.9-1.9C37.4,44.2,36.4,43.1,35.4,42.1z"/>
</g>
<polyline class="st4" points="57.9,60.7 59.2,55.4 62.2,55.4 62.2,60.7 "/>
<path class="st11" d="M84.2,66.2l-7.5-1.7l2-1.5c-0.8-0.5-1.8-1.5-3.3-0.7c2,4,1,6,6,5c-1,0-1,0-1-1C81.1,65.5,82.9,66.4,84.2,66.2z
	"/>
<path class="st12" d="M80.1,57.1l1.6-5.4L70.8,62.5L70.5,68l5.7,6.1l3.7,2.8l-1.4-4.4c-1.2-0.3-2.4-0.9-3-2.8
	c-2.1-1.8-3.8-3.4-3.1-5.5c0-3,5-4,8-6c0,0.5,0,1.4,0.3,2c0.4,0,0.9,0,1.4,0.2l2.8-2.1L80.1,57.1z"/>
<path class="st12" d="M81.4,61l0.7-0.5c-0.5-0.1-0.9-0.2-1.4-0.2C80.9,60.6,81.1,60.8,81.4,61z"/>
<path class="st13" d="M86.9,66.7l-2.6-0.6c-1.3,0.3-3.1-0.6-3.9,0.1c0,1,0,1,1,1c-5,1-4-1-6-5c1.5-0.8,2.5,0.2,3.3,0.7l2.7-2
	c-0.3-0.2-0.5-0.4-0.6-0.7c-0.1,0-0.2,0-0.3,0c0.1,0,0.2,0,0.3,0c-0.3-0.6-0.3-1.5-0.3-2c-3,2-8,3-8,6c-0.7,2.1,1,3.7,3.1,5.5
	c0-0.2-0.1-0.3-0.1-0.5c0,0.2,0.1,0.3,0.1,0.5c0.9,0.8,1.9,1.6,2.9,2.5c-0.9-0.9-1.9-1.7-2.9-2.5c0.6,1.9,1.8,2.5,3,2.8L78,71
	c-1.8-1.4-3.2-3.5-4.6-5.7c1.4,2.1,2.9,4.3,4.6,5.7l-0.8-2.6l4.7,1.5L86.9,66.7z"/>
</svg>
